<?xml version="1.0" encoding="utf-8"?>
<svg viewBox="0 0 296.473 296.473" fill="#000000" xmlns="http://www.w3.org/2000/svg" width="120px" height="120px">
  <g transform="matrix(0.923405, 0.383832, -0.383832, 0.923405, 68.252258, -45.543308)">
    <path d="M 149.381 44.195 C 93.438 44.195 48.088 89.545 48.088 145.489 C 48.088 201.432 93.438 246.782 149.381 246.782 C 205.323 246.782 250.674 201.432 250.674 145.489 C 250.674 89.545 205.323 44.195 149.381 44.195 Z M 199.837 70.5 L 193.382 80.04 C 184.793 74.255 175.003 70.119 164.465 68.078 L 166.729 56.786 C 178.598 59.081 189.821 63.73 199.837 70.5 Z M 154.62 190.444 L 154.62 202.205 L 145.053 202.205 L 145.053 190.503 C 138.22 189.752 131.808 187.134 126.986 182.648 C 122.163 178.163 119.957 171.568 120.116 162.872 L 120.361 162.572 L 137.257 162.572 C 137.257 168.039 138.472 171.668 140.903 173.959 C 143.334 176.252 146.425 177.4 150.181 177.4 C 153.777 177.4 156.534 176.443 158.451 174.525 C 160.367 172.608 161.326 170.031 161.326 166.79 C 161.326 163.588 160.407 160.98 158.569 158.965 C 156.732 156.949 153.579 155.073 149.114 153.333 C 140.339 150.131 133.827 146.565 129.579 142.632 C 125.33 138.7 123.206 133.157 123.206 126.003 C 123.206 119.362 125.169 113.919 129.417 109.67 C 133.665 105.422 139.585 102.921 146.419 102.17 L 146.419 89.456 L 155.985 89.456 L 155.985 102.287 C 162.818 103.316 168.497 106.221 172.469 111.002 C 176.441 115.785 178.433 121.919 178.355 129.547 L 178.223 129.772 L 161.326 129.772 C 161.326 124.989 160.367 121.583 158.451 119.053 C 156.533 116.524 153.915 115.294 150.596 115.294 C 147.196 115.294 144.667 116.29 143.007 118.246 C 141.347 120.203 140.518 122.812 140.518 126.052 C 140.518 129.134 141.397 131.639 143.156 133.556 C 144.914 135.473 148.145 137.362 152.849 139.22 C 161.584 142.658 168.056 146.334 172.265 150.248 C 176.474 154.161 178.579 159.635 178.579 166.67 C 178.579 173.547 176.282 179.042 172.054 183.152 C 167.824 187.264 162.136 189.694 154.62 190.444 Z M 132.034 56.786 L 134.215 68.094 C 123.68 70.147 113.894 74.291 105.31 80.087 L 98.926 70.5 C 108.942 63.73 120.164 59.081 132.034 56.786 Z M 74.393 95.032 L 83.933 101.487 C 78.148 110.076 74.013 119.866 71.972 130.404 L 60.679 128.14 C 62.975 116.271 67.624 105.049 74.393 95.032 Z M 74.392 195.943 C 67.622 185.927 62.974 174.705 60.679 162.835 L 71.987 160.654 C 74.04 171.189 78.184 180.976 83.98 189.56 L 74.392 195.943 Z M 98.925 220.477 L 105.379 210.936 C 113.968 216.722 123.759 220.858 134.298 222.899 L 132.033 234.192 C 120.163 231.895 108.94 227.247 98.925 220.477 Z M 166.728 234.192 L 164.547 222.883 C 175.083 220.831 184.869 216.686 193.453 210.89 L 199.838 220.477 C 189.821 227.248 178.598 231.896 166.728 234.192 Z M 224.37 195.944 L 214.83 189.489 C 220.615 180.901 224.75 171.109 226.791 160.572 L 238.083 162.836 C 235.787 174.705 231.139 185.928 224.37 195.944 Z M 226.775 130.322 C 224.722 119.787 220.578 110 214.782 101.416 L 224.369 95.032 C 231.139 105.048 235.787 116.271 238.083 128.14 L 226.775 130.322 Z" style="" transform="matrix(0.9999999999999999, -5.551115123125783e-17, 5.551115123125783e-17, 0.9999999999999999, -0.21394449394577464, 1.1302843038528252)"/>
  </g>
</svg>